<?xml version="1.0" standalone="no"?>
<!DOCTYPE svg PUBLIC "-//W3C//DTD SVG 20010904//EN"
 "http://www.w3.org/TR/2001/REC-SVG-20010904/DTD/svg10.dtd">
<svg version="1.0" xmlns="http://www.w3.org/2000/svg"
 width="512.000000pt" height="512.000000pt" viewBox="0 0 512.000000 512.000000"
 preserveAspectRatio="xMidYMid meet">
<metadata>
Created by potrace 1.11, written by Peter Selinger 2001-2013
</metadata>
<g transform="translate(0.000000,512.000000) scale(0.100000,-0.100000)"
fill="#000000" stroke="none">
<path d="M1310 5113 c-20 -3 -118 -22 -140 -28 -50 -14 -150 -101 -150 -130 0
-8 -4 -15 -8 -15 -4 0 -9 -8 -10 -17 -2 -25 -10 -68 -12 -68 -1 0 -3 -7 -5
-15 -2 -8 -7 -26 -10 -40 -3 -14 -7 -34 -9 -45 -2 -11 -13 -60 -25 -110 -21
-85 -25 -102 -35 -150 -2 -11 -9 -38 -15 -60 -6 -22 -12 -51 -14 -65 -4 -22
-13 -27 -78 -42 -41 -10 -87 -21 -104 -24 -16 -3 -34 -7 -40 -8 -92 -23 -268
-65 -295 -69 -73 -13 -116 -34 -162 -79 -27 -26 -46 -52 -43 -58 3 -5 2 -10
-4 -10 -12 0 -22 -28 -38 -100 -17 -82 -3 -255 26 -305 3 -5 6 -15 7 -20 8
-50 156 -225 204 -240 11 -3 20 -10 20 -15 0 -4 30 -20 67 -34 77 -29 138 -42
301 -61 23 -3 61 -8 85 -11 23 -3 54 -6 70 -7 15 0 27 -3 27 -6 0 -6 67 -13
147 -15 24 0 43 -3 43 -6 0 -5 124 -5 145 0 6 1 13 2 16 1 4 0 -11 -51 -32
-113 -21 -62 -36 -114 -34 -116 2 -3 0 -12 -5 -21 -4 -9 -11 -37 -15 -61 -3
-25 -8 -52 -10 -60 -17 -66 -22 -287 -10 -395 3 -27 7 -67 8 -87 1 -21 5 -38
10 -38 4 0 7 -9 7 -20 0 -24 22 -107 50 -190 43 -124 160 -349 194 -372 6 -4
7 -8 2 -8 -5 0 1 -8 12 -19 12 -10 22 -23 22 -30 0 -6 9 -16 20 -23 11 -7 20
-18 20 -24 0 -7 7 -14 15 -18 8 -3 15 -12 15 -21 0 -8 7 -15 15 -15 8 0 15 -8
15 -17 0 -9 2 -14 5 -11 3 2 29 -18 58 -46 69 -67 140 -126 151 -126 5 0 16
-8 25 -18 9 -9 30 -24 46 -32 17 -8 32 -18 35 -21 7 -10 207 -109 220 -109 5
0 18 -4 28 -10 9 -5 44 -18 77 -29 56 -18 85 -25 160 -38 17 -2 37 -7 45 -10
8 -3 35 -7 60 -9 25 -3 59 -6 75 -7 17 -2 36 -6 43 -10 6 -5 12 -5 12 0 0 4
42 8 93 8 101 1 173 8 257 25 30 6 65 13 78 16 12 2 61 17 107 33 47 16 85 26
86 22 0 -3 2 -46 4 -96 2 -49 7 -113 12 -141 5 -28 9 -61 8 -72 -1 -12 1 -22
5 -22 3 0 7 -10 7 -22 2 -36 11 -123 13 -123 1 0 3 -11 5 -25 1 -14 6 -47 10
-75 5 -27 9 -62 9 -77 1 -16 5 -28 10 -28 5 0 7 -3 3 -6 -9 -9 30 -112 64
-168 17 -28 55 -73 84 -101 68 -64 73 -68 113 -85 17 -8 32 -19 32 -23 0 -5 4
-6 9 -2 5 3 12 1 16 -5 4 -6 11 -8 16 -5 5 4 9 2 9 -2 0 -5 8 -10 18 -11 20
-2 57 -10 57 -12 0 -3 71 -12 110 -14 41 -2 118 9 145 21 8 3 24 8 35 10 11 2
22 8 23 13 2 6 8 8 12 5 5 -3 31 17 59 44 40 39 54 62 70 116 12 37 24 82 27
99 3 17 13 67 24 111 10 44 26 112 35 150 15 64 20 83 30 125 2 8 4 23 4 32 1
21 41 60 56 55 5 -2 26 1 45 8 19 6 42 11 50 10 8 -1 20 3 26 7 7 5 16 8 20 7
5 -1 11 0 14 1 3 1 12 3 20 5 8 2 29 6 45 10 17 4 55 12 85 18 30 6 57 13 60
16 3 3 14 7 25 8 47 5 88 14 106 23 10 6 19 9 19 6 0 -3 15 1 34 9 18 8 36 12
40 10 3 -3 4 -2 2 1 -3 3 16 26 42 50 25 24 43 44 39 44 -3 0 5 25 19 55 44
95 38 273 -13 390 -43 100 -143 213 -221 250 -23 11 -42 23 -42 28 0 4 -11 7
-25 7 -14 0 -25 5 -25 11 0 5 -4 7 -10 4 -6 -3 -10 -2 -10 2 0 5 -12 10 -27
11 -16 1 -39 5 -53 8 -14 3 -37 7 -52 8 -16 0 -28 4 -28 7 0 3 -12 6 -27 6
-28 1 -112 11 -168 19 -44 6 -86 13 -120 18 -16 3 -56 7 -89 10 -32 4 -62 9
-67 12 -5 3 -9 0 -9 -5 0 -8 -7 -7 -19 1 -16 10 -18 15 -8 27 7 8 11 16 9 18
-1 2 5 17 13 33 9 17 13 30 9 30 -4 0 -2 6 3 13 6 6 16 30 22 52 7 22 16 49
21 60 7 17 15 43 25 90 4 14 15 75 20 105 24 136 22 491 -3 509 -4 4 -8 20
-10 36 -2 31 -19 108 -30 135 -3 8 -6 18 -7 23 -2 4 -4 9 -5 12 -1 3 -3 8 -4
13 -9 37 -34 99 -66 164 -10 20 -16 39 -13 42 4 3 1 6 -5 6 -6 0 -16 16 -23
35 -7 19 -17 35 -21 35 -4 0 -8 6 -8 13 0 8 -9 22 -20 32 -11 10 -20 23 -20
28 0 33 -187 243 -290 326 -25 20 -47 38 -50 41 -15 16 -115 82 -136 90 -13 5
-24 14 -24 20 0 5 -7 10 -15 10 -9 0 -32 11 -53 24 -20 12 -41 24 -47 25 -5 2
-26 10 -45 18 -88 37 -213 78 -265 87 -16 2 -30 5 -30 6 0 2 -32 8 -85 16 -65
9 -387 10 -440 0 -38 -6 -106 -21 -208 -43 -12 -3 -25 -9 -28 -14 -3 -5 -18
-9 -34 -9 -15 0 -30 -4 -32 -10 -1 -5 -12 -11 -23 -13 -11 -2 -46 -16 -77 -30
-31 -15 -62 -27 -67 -27 -6 0 -11 -5 -11 -12 0 -6 -3 -8 -7 -5 -3 4 -7 46 -9
94 -1 49 -5 106 -9 128 -7 44 -14 100 -19 155 -2 19 -5 35 -6 35 -1 0 -3 11
-5 25 -7 72 -23 189 -28 210 -26 109 -52 177 -72 192 -5 4 -6 8 -2 8 12 0 -31
58 -78 106 -47 47 -112 92 -175 121 -62 28 -192 52 -250 46z"/>
</g>
</svg>
